<?xml version="1.0" encoding="UTF-8" standalone="no"?>
<!DOCTYPE svg PUBLIC "-//W3C//DTD SVG 1.1//EN" "http://www.w3.org/Graphics/SVG/1.1/DTD/svg11.dtd">
<svg width="100%" height="100%" viewBox="0 0 85 111" version="1.1" xmlns="http://www.w3.org/2000/svg" xmlns:xlink="http://www.w3.org/1999/xlink" xml:space="preserve" xmlns:serif="http://www.serif.com/" style="fill-rule:evenodd;clip-rule:evenodd;stroke-linejoin:round;stroke-miterlimit:2;">
    <g transform="matrix(1,0,0,1,-85,0)">
        <g transform="matrix(1,0,0,1,-358.165,-223.27)">
            <path d="M492.976,269.5L517.336,239.61C518.828,237.621 519.536,236.58 518.828,234.887C518.069,233.061 516.321,231.829 514.347,231.726C513.235,231.663 512.145,232.064 511.339,232.834L485.2,261.094L492.976,269.5Z" style="fill:white;fill-rule:nonzero;"/>
        </g>
        <g transform="matrix(1,0,0,1,-358.165,-223.27)">
            <path d="M526.273,325.341L493.91,287.058L492.938,288.091L485.149,278.877L477.406,269.52L472.711,274.596C471.001,276.425 471.008,279.305 472.726,281.126L520.512,332.2C521.325,333.048 522.478,333.486 523.649,333.392C525.437,333.362 527.035,332.243 527.676,330.574C528.4,328.844 527.6,327.133 526.273,325.341Z" style="fill:white;fill-rule:nonzero;"/>
        </g>
        <g transform="matrix(1,0,0,1,-358.165,-223.27)">
            <path d="M479.215,288.087L485.267,294.572L458.714,322.7C458.175,323.421 457.338,323.86 456.439,323.894C455.024,323.914 453.733,323.06 453.198,321.75C452.685,320.519 453.364,318.6 454.32,317.582L454.343,317.558L454.364,317.532L479.215,288.084M479.168,286.202L453.408,316.726C452.122,318.098 451.324,320.503 452.043,322.226C452.774,324.002 454.522,325.16 456.443,325.14C457.675,325.109 458.832,324.537 459.604,323.577L486.986,294.57L479.172,286.198L479.168,286.202Z" style="fill:white;fill-rule:nonzero;"/>
        </g>
        <g transform="matrix(1,0,0,1,-358.165,-223.27)">
            <path d="M448.538,224.52L448.615,224.52C449.615,224.544 450.851,225.765 451.204,226.189L451.227,226.217L451.251,226.243L497.915,276.676C499.041,277.898 499.026,279.808 497.881,281.012L492.988,286.212L486.112,278.078L446.652,230.4C445.144,228.234 445.035,227.564 445.461,226.542C445.991,225.318 447.204,224.522 448.538,224.522M448.538,223.272C446.701,223.273 445.032,224.373 444.307,226.061C443.602,227.753 444.107,228.941 445.656,231.161L485.149,278.883L492.938,288.097L498.791,281.876C500.387,280.198 500.405,277.534 498.833,275.834L452.169,225.4C452.169,225.4 450.456,223.32 448.645,223.276L448.538,223.272Z" style="fill:white;fill-rule:nonzero;"/>
        </g>
    </g>
</svg>
