<?xml version="1.0" encoding="UTF-8" standalone="no"?>
<!DOCTYPE svg PUBLIC "-//W3C//DTD SVG 1.1//EN" "http://www.w3.org/Graphics/SVG/1.1/DTD/svg11.dtd">
<svg width="100%" height="100%" viewBox="0 0 64 64" version="1.1" xmlns="http://www.w3.org/2000/svg" xmlns:xlink="http://www.w3.org/1999/xlink" xml:space="preserve" xmlns:serif="http://www.serif.com/" style="fill-rule:evenodd;clip-rule:evenodd;stroke-linejoin:round;stroke-miterlimit:2;">
    <path d="M32,0C14.442,0.012 0.001,14.463 0.001,32.021C0.001,45.77 8.856,58.054 21.9,62.4C23.5,62.7 24.1,61.7 24.1,60.9L24.1,54.9C15.2,56.8 13.3,51.1 13.3,51.1C11.8,47.4 9.7,46.4 9.7,46.4C6.8,44.4 9.9,44.5 9.9,44.5C13.1,44.7 14.8,47.8 14.8,47.8C17.7,52.7 22.3,51.3 24.1,50.5C24.24,48.876 24.949,47.353 26.1,46.2C19,45.4 11.5,42.6 11.5,30.4C11.441,27.215 12.626,24.128 14.8,21.8C13.856,19.026 13.963,16 15.1,13.3C16.237,10.6 17.8,12.4 23.9,16.6C26.507,15.885 29.197,15.515 31.9,15.5C34.604,15.508 37.294,15.878 39.9,16.6C46,12.5 48.7,13.3 48.7,13.3C49.837,16 49.944,19.026 49,21.8C51.19,24.119 52.377,27.212 52.3,30.4C52.3,42.7 44.8,45.4 37.7,46.2C39.235,47.766 40.035,49.912 39.9,52.1L39.9,60.9C39.9,61.8 40.5,62.7 42.1,62.4C55.144,58.054 63.999,45.77 63.999,32.021C63.999,14.463 49.558,0.012 32,-0Z" style="fill:white;fill-rule:nonzero;"/>
    <path d="M12.1,45.9C12,46.1 11.8,46.1 11.6,46C11.4,45.9 11.2,45.7 11.3,45.5C11.4,45.3 11.6,45.3 11.9,45.4C12.1,45.6 12.2,45.8 12.1,45.9ZM13.4,47.4C13.313,47.448 13.215,47.473 13.116,47.473C12.793,47.473 12.527,47.207 12.527,46.884C12.527,46.785 12.552,46.687 12.6,46.6C12.831,46.487 13.109,46.527 13.3,46.7C13.427,46.793 13.502,46.941 13.502,47.099C13.502,47.208 13.466,47.314 13.4,47.4ZM14.7,49.2C14.426,49.286 14.127,49.158 14,48.9C13.797,48.673 13.797,48.327 14,48.1C14.274,48.014 14.573,48.142 14.7,48.4C14.9,48.7 14.9,49.1 14.7,49.2ZM16.4,51C16.2,51.2 15.9,51.1 15.6,50.9C15.3,50.6 15.2,50.3 15.4,50.1C15.654,49.932 15.995,49.975 16.2,50.2C16.381,50.296 16.495,50.485 16.495,50.69C16.495,50.8 16.462,50.908 16.4,51ZM18.8,52C18.7,52.3 18.4,52.4 18,52.3C17.6,52.2 17.4,51.9 17.5,51.6C17.6,51.3 17.9,51.2 18.3,51.3C18.6,51.5 18.9,51.8 18.8,52ZM21.4,52.2C21.4,52.5 21.1,52.7 20.7,52.7C20.3,52.7 20,52.5 20,52.2C20,51.9 20.3,51.7 20.7,51.7C21.1,51.8 21.4,52 21.4,52.2ZM23.8,51.8C23.8,52.1 23.6,52.3 23.2,52.4C22.897,52.496 22.565,52.372 22.4,52.1C22.4,51.8 22.6,51.6 23,51.5C23.5,51.4 23.8,51.6 23.8,51.8Z" style="fill:white;fill-rule:nonzero;"/>
</svg>
