<?xml version="1.0" encoding="UTF-8" standalone="no"?>
<!DOCTYPE svg PUBLIC "-//W3C//DTD SVG 1.1//EN" "http://www.w3.org/Graphics/SVG/1.1/DTD/svg11.dtd">
<svg width="100%" height="100%" viewBox="0 0 800 800" version="1.1" xmlns="http://www.w3.org/2000/svg" xmlns:xlink="http://www.w3.org/1999/xlink" xml:space="preserve" xmlns:serif="http://www.serif.com/" style="fill-rule:evenodd;clip-rule:evenodd;stroke-linejoin:round;stroke-miterlimit:2;">
    <g>
        <path d="M127.001,0L127.001,432.834L68.88,432.834L68.88,660.777L68.882,660.777L126.988,718.885L127.001,800L731.12,800L731.12,167.22L563.899,0L127.001,0ZM646.193,635.776L93.879,635.776L93.879,457.833L646.193,457.833L646.193,635.776ZM576.362,60.346L670.756,154.72L576.362,154.72L576.362,60.346Z" style="fill:white;fill-rule:nonzero;"/>
        <path d="M282.153,484.351L226.441,484.351L226.441,607.398L249.793,607.398L249.793,567.652L277.295,567.652L282.702,567.554C299.523,567.554 310.705,564.844 316.235,559.448C321.765,554.028 324.524,543.091 324.524,526.611C324.524,510.033 321.631,498.828 315.832,493.042C310.034,487.231 298.803,484.351 282.153,484.351ZM296.534,544.336C293.677,546.777 286.963,547.998 276.392,547.998L249.793,547.998L249.793,504.005L278.736,504.005C288.71,504.005 294.887,505.251 297.254,507.74C299.634,510.23 300.818,516.676 300.818,527.076C300.818,536.157 299.389,541.894 296.534,544.336Z" style="fill:white;fill-rule:nonzero;"/>
        <path d="M399.902,484.351L339.404,484.351L339.404,607.398L400.622,607.398C420.031,607.398 432.519,603.027 438.036,594.287C443.553,585.548 446.336,565.796 446.336,535.082C446.336,516.284 442.87,503.125 436.01,495.605C429.127,488.087 417.089,484.351 399.902,484.351ZM417.7,580.029C414.428,585.18 407.202,587.744 396.02,587.744L362.756,587.744L362.756,504.003L397.461,504.003C408.338,504.003 415.259,506.444 418.201,511.376C421.143,516.309 422.62,527.856 422.62,545.995C422.619,563.549 420.984,574.903 417.7,580.029Z" style="fill:white;fill-rule:nonzero;"/>
        <path d="M463.38,607.398L486.718,607.398L486.718,556.811L541.894,556.811L541.894,537.158L486.718,537.158L486.718,504.003L544.873,504.003L544.873,484.351L463.38,484.351L463.38,607.398Z" style="fill:white;fill-rule:nonzero;"/>
    </g>
</svg>
