<?xml version="1.0" encoding="UTF-8" standalone="no"?>
<!DOCTYPE svg PUBLIC "-//W3C//DTD SVG 1.1//EN" "http://www.w3.org/Graphics/SVG/1.1/DTD/svg11.dtd">
<svg width="100%" height="100%" viewBox="0 0 48 48" version="1.1" xmlns="http://www.w3.org/2000/svg" xmlns:xlink="http://www.w3.org/1999/xlink" xml:space="preserve" xmlns:serif="http://www.serif.com/" style="fill-rule:evenodd;clip-rule:evenodd;stroke-linejoin:round;stroke-miterlimit:2;">
    <g transform="matrix(1.19074,0,0,1.19074,-4.58719,-4.57765)">
        <path d="M43.2,33.9C42.8,36 41.1,37.6 39,37.9C35.7,38.4 30.2,39 24,39C17.9,39 12.4,38.4 9,37.9C6.9,37.6 5.2,36 4.8,33.9C4.4,31.6 4,28.2 4,24C4,19.8 4.4,16.4 4.8,14.1C5.2,12 6.9,10.4 9,10.1C12.3,9.6 17.8,9 24,9C30.2,9 35.6,9.6 39,10.1C41.1,10.4 42.8,12 43.2,14.1C43.6,16.4 44.1,19.8 44.1,24C44,28.2 43.6,31.6 43.2,33.9ZM20,31L32,24L20,17L20,31Z" style="fill:white;"/>
    </g>
</svg>
